<?xml version="1.0" encoding="UTF-8"?>
<svg id="Layer_2" data-name="Layer 2" xmlns="http://www.w3.org/2000/svg" viewBox="0 0 1080 1080">
  <defs>
    <style>
      .cls-1 {
        fill: #213469;
      }

      .cls-2 {
        fill: #63bb46;
      }

      .cls-3 {
        fill: #fff;
      }
    </style>
  </defs>
  <rect class="cls-3" x="-115.15" y="-105.67" width="1344.85" height="1291.96"/>
  <g id="Layer_1-2" data-name="Layer 1-2">
    <g>
      <path class="cls-2" d="M312.47,397.19c2.66,0,4,1.54,4,4.62v218.84c0,1.44-.51,2.62-1.54,3.54s-2.46,1.39-4.31,1.39h-31.09c-1.65,0-2.98-.2-4-.62-1.03-.41-2.26-1.43-3.69-3.08l-98.19-137.89c-.82-1.02-1.59-1.43-2.31-1.23-.72.21-1.08.82-1.08,1.85v135.43c.2,3.69-1.85,5.54-6.16,5.54h-32.01c-4.11,0-6.16-1.74-6.16-5.23v-217.3c0-3.9,1.85-5.85,5.54-5.85h37.24c2.26,0,3.95.31,5.08.92,1.13.62,2.41,1.85,3.85,3.69l90.49,128.97c1.23,1.64,2.31,2.36,3.23,2.15.92-.2,1.38-1.23,1.38-3.08v-127.12c0-3.69,1.85-5.54,5.54-5.54,0,0,34.19,0,34.19,0Z"/>
      <path class="cls-1" d="M364.49,397.19h155.13c3.08,0,4.62,1.75,4.62,5.23l-.31,27.7c0,4.31-2.16,6.46-6.46,6.46h-98.19c-3.9,0-5.85,1.65-5.85,4.92v44.63c0,3.49,1.54,5.23,4.62,5.23h65.25c3.49,0,5.23,1.64,5.23,4.92v29.55c0,1.23-.36,2.26-1.08,3.08s-2,1.23-3.85,1.23h-65.87c-2.88,0-4.31,1.23-4.31,3.69v48.32c0,2.67,1.13,4,3.39,4h105.27c3.69,0,5.54,1.54,5.54,4.62v29.24c0,1.64-.46,2.98-1.38,4-.92,1.03-2.52,1.54-4.77,1.54h-155.13c-4.52,0-6.77-2.15-6.77-6.46v-216.07c0-3.9,1.64-5.85,4.92-5.85v.02h0Z"/>
      <path class="cls-1" d="M753.84,622.96c-1.03,1.75-3.18,2.62-6.46,2.62h-42.78c-4.72,0-8-1.54-9.85-4.62l-43.4-69.87c-1.65-2.46-2.98-3.74-4-3.85-1.03-.1-2.36,1.18-4,3.85l-43.09,69.87c-.82,1.64-2.11,2.82-3.85,3.54-1.75.72-3.85,1.08-6.31,1.08h-34.16c-3.29,0-5.39-.82-6.31-2.46-.92-1.64.15-4.82,3.23-9.54l64.64-98.8c1.23-1.85,1.79-3.43,1.69-4.77-.11-1.33-.77-3.03-2-5.08l-64.64-99.42c-1.23-1.64-1.59-3.43-1.08-5.39.51-1.95,2.1-2.92,4.77-2.92h44.94c2.66,0,4.66.41,6,1.23,1.33.82,2.51,2.05,3.54,3.69l38.17,62.48c1.02,1.64,2.1,2.46,3.23,2.46s2.2-.82,3.23-2.46l38.17-62.48c1.02-1.64,2.2-2.87,3.54-3.69,1.33-.82,3.23-1.23,5.69-1.23h37.55c2.87,0,4.46.88,4.77,2.62.31,1.75-.26,3.44-1.69,5.08l-62.17,94.18c-1.23,1.85-1.75,3.39-1.54,4.62.2,1.23.82,2.88,1.85,4.92l69.25,104.96c3.08,4.52,4.1,7.65,3.08,9.39h-.01Z"/>
      <path class="cls-2" d="M768.61,402.73c0-1.64.51-2.97,1.54-4,1.02-1.02,2.56-1.54,4.62-1.54h176.67c2.26,0,3.85.51,4.77,1.54.92,1.03,1.38,2.36,1.38,4v28.63c0,3.08-1.85,4.62-5.54,4.62h-57.56c-2.26,0-3.39,1.03-3.39,3.08v180.67c0,3.9-1.75,5.85-5.23,5.85h-44.01c-3.08,0-4.62-1.74-4.62-5.23v-180.37c0-2.66-1.13-4-3.39-4h-59.4c-3.9,0-5.85-1.54-5.85-4.62v-28.63h.01Z"/>
    </g>
    <g>
      <path class="cls-1" d="M147.25,645.23c.35,0,.53.21.53.62v29.15c0,.19-.07.35-.21.47s-.33.18-.57.18h-4.14c-.22,0-.4-.03-.53-.08-.14-.05-.3-.19-.49-.41l-13.08-18.37c-.11-.14-.21-.19-.31-.16s-.14.11-.14.25v18.04c.03.49-.25.74-.82.74h-4.26c-.55,0-.82-.23-.82-.7v-28.95c0-.52.25-.78.74-.78h4.96c.3,0,.53.04.68.12s.32.25.51.49l12.05,17.18c.16.22.31.31.43.29s.18-.16.18-.41v-16.93c0-.49.25-.74.74-.74h4.55Z"/>
      <path class="cls-1" d="M159.16,669.32c.48.78,1.12,1.38,1.93,1.8s1.71.64,2.73.64,1.89-.21,2.73-.64c.83-.42,1.67-1.13,2.52-2.11.11-.11.2-.17.29-.18s.23.03.45.14l2.95,1.23c.38.16.42.44.12.82-.88,1.26-1.79,2.25-2.75,2.99s-2.02,1.26-3.18,1.58c-1.16.31-2.47.47-3.92.47-2.13,0-4.03-.46-5.7-1.39s-2.99-2.22-3.96-3.87-1.46-3.55-1.46-5.68c0-2.35.5-4.39,1.5-6.13s2.33-3.08,4-4.04c1.67-.96,3.5-1.43,5.49-1.43,2.1,0,3.95.46,5.54,1.37,1.58.92,2.84,2.22,3.75,3.92.92,1.69,1.37,3.76,1.37,6.19,0,.3-.03.53-.08.7-.06.16-.26.26-.61.29h-13.94c-.16,0-.29.05-.37.16s-.12.27-.12.49c0,1.01.24,1.91.72,2.68h0ZM166.68,662.53c.3,0,.49-.03.57-.1.08-.07.12-.23.12-.47,0-.68-.16-1.38-.47-2.09s-.78-1.3-1.39-1.78-1.4-.72-2.36-.72c-.9,0-1.71.22-2.42.66s-1.26,1.04-1.64,1.82-.57,1.66-.57,2.64l8.16.04h0Z"/>
      <path class="cls-1" d="M206.57,654.21c.11.19.11.41,0,.66l-6.68,20.13c-.08.25-.18.42-.31.51s-.31.14-.55.14h-3.36c-.55,0-.9-.26-1.07-.78l-3.53-11.27c-.11-.27-.22-.41-.33-.41s-.19.14-.25.41l-3.61,11.4c-.06.25-.14.42-.27.51s-.32.14-.59.14h-3.49c-.52,0-.86-.26-1.02-.78l-6.6-19.97c-.08-.27-.06-.5.06-.7.12-.19.32-.29.59-.29h4.8c.19,0,.38.06.55.18.18.12.29.29.35.51l3.65,11.6c.05.25.14.37.27.37s.23-.14.31-.41l3.53-11.6c.05-.19.16-.35.33-.47s.35-.18.57-.18h3.44c.19,0,.38.06.55.18s.28.29.31.51l3.57,11.6c.08.25.18.37.29.37s.22-.14.33-.41l3.53-11.6c.11-.19.24-.35.39-.47s.33-.18.55-.18h3.12c.27,0,.46.1.57.29h0Z"/>
      <path class="cls-1" d="M218.92,658.27c-.3,0-.45.16-.45.49v9.88c0,.93.22,1.59.66,1.99s1.13.59,2.09.59h2.21c.19,0,.34.07.45.21s.16.3.16.49l-.04,2.5c0,.52-.3.85-.9.98-.49.06-1.02.1-1.58.14-.56.04-1.12.07-1.68.08s-1.1.02-1.62.02c-1.86,0-3.34-.44-4.43-1.33s-1.64-2.21-1.64-3.96v-11.48c0-.41-.18-.62-.53-.62h-2.5c-.52,0-.78-.23-.78-.7v-3.03c0-.41.25-.62.74-.62h2.83c.25,0,.38-.15.41-.45l.57-6.23c.03-.46.23-.7.61-.7h4.47c.44,0,.66.26.66.78v6.15c0,.27.14.41.41.41h4.31c.49,0,.74.22.74.66v3.03c0,.46-.27.7-.82.7h-4.35v.02h0Z"/>
      <path class="cls-1" d="M231.07,674.63c-1.65-.96-2.95-2.28-3.87-3.96-.93-1.68-1.39-3.6-1.39-5.76,0-2.27.48-4.26,1.44-5.96.96-1.71,2.27-3.04,3.94-4s3.55-1.43,5.66-1.43,4.14.49,5.78,1.46,2.92,2.31,3.83,4.02c.92,1.71,1.37,3.67,1.37,5.88s-.47,4.12-1.39,5.8c-.93,1.68-2.22,3-3.87,3.96s-3.57,1.44-5.76,1.44-4.07-.48-5.72-1.44h-.02ZM239.37,671.08c.68-.53,1.2-1.33,1.54-2.4s.51-2.36.51-3.9-.17-2.94-.51-4c-.34-1.05-.85-1.85-1.54-2.4s-1.53-.82-2.54-.82-1.82.27-2.52.82-1.22,1.35-1.58,2.4-.53,2.38-.53,4,.18,2.86.53,3.92c.35,1.05.88,1.84,1.58,2.38.7.53,1.54.8,2.52.8s1.86-.27,2.54-.8h0Z"/>
      <path class="cls-1" d="M280.42,654.21c.11.19.11.41,0,.66l-6.68,20.13c-.08.25-.18.42-.31.51s-.31.14-.55.14h-3.36c-.55,0-.9-.26-1.07-.78l-3.53-11.27c-.11-.27-.22-.41-.33-.41s-.19.14-.25.41l-3.61,11.4c-.06.25-.14.42-.27.51s-.32.14-.59.14h-3.49c-.52,0-.86-.26-1.02-.78l-6.6-19.97c-.08-.27-.06-.5.06-.7.12-.19.32-.29.59-.29h4.8c.19,0,.38.06.55.18.18.12.29.29.35.51l3.65,11.6c.05.25.14.37.27.37s.23-.14.31-.41l3.53-11.6c.05-.19.16-.35.33-.47s.35-.18.57-.18h3.44c.19,0,.38.06.55.18s.28.29.31.51l3.57,11.6c.08.25.18.37.29.37s.22-.14.33-.41l3.53-11.6c.11-.19.24-.35.39-.47s.33-.18.55-.18h3.12c.27,0,.46.1.57.29h0Z"/>
      <path class="cls-1" d="M283.61,674.83v-20.13c0-.52.22-.78.66-.78h4.96c.41,0,.61.23.61.7v2.01c0,.16.04.27.12.33s.21,0,.37-.16c.71-.66,1.42-1.23,2.13-1.72s1.46-.87,2.26-1.15c.79-.27,1.64-.41,2.54-.41,1.99,0,3.57.59,4.74,1.76,1.16,1.18,1.74,2.75,1.74,4.71v14.68c0,.66-.33.98-.98.98h-4.55c-.27,0-.47-.06-.59-.18s-.18-.33-.18-.64v-13.86c0-.93-.25-1.65-.76-2.15-.51-.51-1.25-.76-2.23-.76-.57,0-1.11.1-1.6.29s-.97.47-1.44.84c-.46.37-.96.84-1.48,1.42v14.1c0,.63-.36.94-1.07.94h-4.39c-.57,0-.86-.27-.86-.82h0Z"/>
      <path class="cls-1" d="M317.77,645.23h20.66c.41,0,.61.23.61.7l-.04,3.69c0,.57-.29.86-.86.86h-13.08c-.52,0-.78.22-.78.66v5.94c0,.47.21.7.62.7h8.69c.46,0,.7.22.7.66v3.94c0,.16-.05.3-.14.41-.1.11-.27.16-.51.16h-8.77c-.38,0-.57.16-.57.49v6.44c0,.36.15.53.45.53h14.02c.49,0,.74.21.74.62v3.89c0,.22-.06.4-.18.53s-.33.21-.64.21h-20.66c-.6,0-.9-.29-.9-.86v-28.78c0-.52.22-.78.66-.78h-.02Z"/>
      <path class="cls-1" d="M343.31,674.83v-20.13c0-.52.22-.78.66-.78h4.96c.41,0,.62.23.62.7v2.01c0,.16.04.27.12.33s.21,0,.37-.16c.71-.66,1.42-1.23,2.13-1.72s1.46-.87,2.25-1.15c.79-.27,1.64-.41,2.54-.41,2,0,3.57.59,4.74,1.76,1.16,1.18,1.74,2.75,1.74,4.71v14.68c0,.66-.33.98-.98.98h-4.55c-.27,0-.47-.06-.59-.18s-.18-.33-.18-.64v-13.86c0-.93-.25-1.65-.76-2.15s-1.25-.76-2.23-.76c-.57,0-1.11.1-1.6.29s-.97.47-1.44.84c-.46.37-.96.84-1.48,1.42v14.1c0,.63-.36.94-1.07.94h-4.39c-.57,0-.86-.27-.86-.82h0Z"/>
      <path class="cls-1" d="M390.31,653.18c.15.14.23.37.23.7v2.79c0,.38-.08.65-.25.8-.16.15-.4.2-.7.14-.36-.05-.7-.09-1.05-.1-.34-.01-.64,0-.88.06-.74.11-1.01.42-.82.94.05.25.13.52.23.82.09.3.14.64.14,1.03,0,1.23-.36,2.36-1.09,3.38-.72,1.02-1.82,1.84-3.3,2.44-1.48.6-3.31.9-5.49.9-1.09,0-1.97.06-2.62.18-.66.12-1.13.29-1.41.49s-.43.43-.43.68c0,.36.21.61.64.76.42.15,1.07.25,1.95.31l5.86.33c2.79.16,4.82.78,6.11,1.85,1.29,1.07,1.93,2.43,1.93,4.1,0,2.08-.98,3.77-2.95,5.08s-4.87,1.97-8.69,1.97-6.94-.44-8.94-1.31c-2-.88-2.99-2.2-2.99-3.98,0-.96.37-1.74,1.11-2.34s1.68-1.11,2.83-1.52c.36-.14.36-.29,0-.45-.68-.33-1.25-.73-1.7-1.21-.45-.48-.68-1.09-.68-1.82,0-.55.18-1.04.53-1.5.35-.45.83-.87,1.44-1.25.6-.38,1.27-.71,2.01-.98.14-.05.23-.13.29-.23.05-.1,0-.18-.21-.27-1.29-.6-2.27-1.37-2.95-2.3s-1.03-2.02-1.03-3.28c0-2.02.88-3.66,2.64-4.92s4.34-1.89,7.73-1.89c1.5,0,2.8.16,3.9.49,1.09.33,1.98.78,2.67,1.35.19.14.39.2.59.18s.38-.1.51-.27c.36-.44.78-.83,1.27-1.19.49-.35,1.01-.64,1.56-.86s1.03-.33,1.44-.33c.25,0,.44.07.59.21l-.02.02h0ZM374.26,674.42c-.55-.03-1.07.06-1.56.25s-.9.47-1.23.82-.49.76-.49,1.23c0,.63.23,1.17.7,1.64.46.46,1.22.82,2.25,1.07,1.04.25,2.43.37,4.18.37,1.86,0,3.27-.25,4.24-.76s1.46-1.22,1.46-2.15c0-.57-.27-1.07-.8-1.48s-1.35-.64-2.44-.7l-6.31-.29ZM380.47,662.96c.67-.67,1-1.5,1-2.48,0-1.09-.33-1.99-1-2.69s-1.73-1.05-3.18-1.05c-1.34,0-2.38.35-3.12,1.05s-1.11,1.59-1.11,2.69c0,.98.37,1.81,1.11,2.48s1.78,1,3.12,1c1.45,0,2.51-.33,3.18-1Z"/>
      <path class="cls-1" d="M401.84,675.39c-1.05.45-2.26.68-3.63.68-2.08,0-3.71-.56-4.9-1.68s-1.78-2.55-1.78-4.3c0-1.53.48-2.87,1.43-4.02.96-1.15,2.32-2.04,4.1-2.69,1.78-.64,3.89-.99,6.35-1.05l1.43-.12c.16,0,.31-.04.45-.12s.21-.23.21-.45v-.86c0-1.04-.3-1.85-.9-2.44s-1.46-.88-2.58-.88c-.82,0-1.61.18-2.36.55s-1.39,1-1.91,1.91c-.08.19-.18.31-.29.37s-.31.05-.61,0l-4.1-.94c-.16-.05-.28-.14-.35-.27-.07-.12-.02-.39.14-.8.68-1.61,1.87-2.81,3.55-3.59s3.75-1.17,6.21-1.17c2.27,0,4.07.29,5.41.86s2.31,1.37,2.91,2.4.9,2.22.9,3.59v14.39c0,.33-.06.56-.16.7-.11.14-.31.21-.62.21h-4.22c-.3,0-.51-.11-.64-.33s-.2-.49-.23-.82l-.08-.9c-.05-.49-.36-.51-.9-.04-.85.77-1.8,1.37-2.85,1.82h.02ZM404.89,665.28l-1.15.08c-.71.03-1.42.13-2.13.31s-1.35.42-1.93.74c-.57.31-1.05.71-1.42,1.19-.37.48-.55,1.03-.55,1.66,0,.82.29,1.47.86,1.95s1.37.72,2.38.72c.68,0,1.29-.11,1.82-.33s.99-.48,1.37-.78c.41-.36.74-.71.98-1.07.25-.35.37-.72.37-1.11v-2.67c0-.46-.21-.7-.62-.7h.02Z"/>
      <path class="cls-1" d="M438.65,653.18c.15.14.23.37.23.7v2.79c0,.38-.08.65-.25.8-.16.15-.4.2-.7.14-.36-.05-.7-.09-1.05-.1-.34-.01-.64,0-.88.06-.74.11-1.01.42-.82.94.05.25.13.52.23.82.09.3.14.64.14,1.03,0,1.23-.36,2.36-1.09,3.38-.72,1.02-1.82,1.84-3.3,2.44-1.48.6-3.31.9-5.49.9-1.09,0-1.97.06-2.62.18-.66.12-1.13.29-1.41.49s-.43.43-.43.68c0,.36.21.61.64.76.42.15,1.07.25,1.95.31l5.86.33c2.79.16,4.82.78,6.11,1.85,1.29,1.07,1.93,2.43,1.93,4.1,0,2.08-.98,3.77-2.95,5.08s-4.87,1.97-8.69,1.97-6.94-.44-8.94-1.31c-2-.88-2.99-2.2-2.99-3.98,0-.96.37-1.74,1.11-2.34s1.68-1.11,2.83-1.52c.36-.14.36-.29,0-.45-.68-.33-1.25-.73-1.7-1.21-.45-.48-.68-1.09-.68-1.82,0-.55.18-1.04.53-1.5.35-.45.83-.87,1.44-1.25.6-.38,1.27-.71,2.01-.98.14-.05.23-.13.29-.23.05-.1-.01-.18-.21-.27-1.29-.6-2.27-1.37-2.95-2.3-.68-.93-1.03-2.02-1.03-3.28,0-2.02.88-3.66,2.64-4.92s4.34-1.89,7.73-1.89c1.5,0,2.8.16,3.9.49,1.09.33,1.98.78,2.67,1.35.19.14.39.2.59.18s.38-.1.51-.27c.36-.44.78-.83,1.27-1.19.49-.35,1.01-.64,1.56-.86s1.03-.33,1.44-.33c.25,0,.44.07.59.21l-.02.02h0ZM422.6,674.42c-.55-.03-1.07.06-1.56.25s-.9.47-1.23.82-.49.76-.49,1.23c0,.63.23,1.17.7,1.64s1.22.82,2.25,1.07c1.04.25,2.43.37,4.18.37,1.86,0,3.27-.25,4.24-.76s1.46-1.22,1.46-2.15c0-.57-.27-1.07-.8-1.48s-1.35-.64-2.44-.7l-6.31-.29ZM428.81,662.96c.67-.67,1-1.5,1-2.48,0-1.09-.33-1.99-1-2.69s-1.73-1.05-3.18-1.05c-1.34,0-2.38.35-3.12,1.05s-1.11,1.59-1.11,2.69c0,.98.37,1.81,1.11,2.48s1.78,1,3.12,1c1.45,0,2.51-.33,3.18-1Z"/>
      <path class="cls-1" d="M447.02,669.32c.48.78,1.12,1.38,1.93,1.8s1.71.64,2.73.64,1.89-.21,2.73-.64c.83-.42,1.67-1.13,2.52-2.11.11-.11.21-.17.29-.18s.23.03.45.14l2.95,1.23c.38.16.42.44.12.82-.88,1.26-1.79,2.25-2.75,2.99s-2.02,1.26-3.18,1.58c-1.16.31-2.47.47-3.92.47-2.13,0-4.03-.46-5.7-1.39s-2.99-2.22-3.96-3.87-1.46-3.55-1.46-5.68c0-2.35.5-4.39,1.5-6.13s2.33-3.08,4-4.04c1.67-.96,3.5-1.43,5.49-1.43,2.1,0,3.95.46,5.54,1.37,1.58.92,2.84,2.22,3.75,3.92.92,1.69,1.37,3.76,1.37,6.19,0,.3-.03.53-.08.7s-.26.26-.62.29h-13.94c-.16,0-.29.05-.37.16s-.12.27-.12.49c0,1.01.24,1.91.72,2.68h0ZM454.54,662.53c.3,0,.49-.03.57-.1.08-.07.12-.23.12-.47,0-.68-.16-1.38-.47-2.09s-.78-1.3-1.39-1.78-1.4-.72-2.36-.72c-.9,0-1.71.22-2.42.66s-1.26,1.04-1.64,1.82-.57,1.66-.57,2.64l8.16.04h0Z"/>
      <path class="cls-1" d="M464.79,674.83v-20.13c0-.52.22-.78.66-.78h4.92c.41,0,.62.23.62.7v2.01c0,.16.05.27.14.33.09.06.21,0,.35-.16.71-.66,1.42-1.23,2.13-1.72s1.46-.88,2.25-1.17,1.61-.43,2.46-.43c1.48,0,2.71.35,3.71,1.04,1,.7,1.7,1.62,2.11,2.77.05.11.13.16.22.14.1-.01.2-.08.31-.18.66-.71,1.37-1.35,2.15-1.91s1.6-1,2.48-1.33c.87-.33,1.74-.49,2.58-.49,1.91,0,3.44.59,4.57,1.76,1.13,1.18,1.7,2.79,1.7,4.84v14.55c0,.66-.33.98-.98.98h-4.55c-.27,0-.47-.06-.59-.18s-.18-.33-.18-.64v-13.86c0-.93-.25-1.65-.74-2.15s-1.19-.76-2.09-.76c-.52,0-1.03.11-1.52.33s-.94.48-1.35.78-.77.63-1.07.98c-.19.19-.31.38-.37.55s-.08.38-.08.59v13.37c0,.66-.33.98-.98.98h-4.51c-.27,0-.47-.06-.59-.18s-.18-.33-.18-.64v-13.86c0-.93-.25-1.65-.74-2.15s-1.2-.76-2.13-.76c-.82,0-1.57.21-2.25.64-.68.42-1.39,1.06-2.13,1.91v14.1c0,.63-.36.94-1.07.94h-4.39c-.57,0-.86-.27-.86-.82h-.01Z"/>
      <path class="cls-1" d="M508.72,669.32c.48.78,1.12,1.38,1.93,1.8s1.71.64,2.73.64,1.89-.21,2.73-.64c.83-.42,1.67-1.13,2.52-2.11.11-.11.21-.17.29-.18s.23.03.45.14l2.95,1.23c.38.16.42.44.12.82-.88,1.26-1.79,2.25-2.75,2.99s-2.02,1.26-3.18,1.58c-1.16.31-2.47.47-3.92.47-2.13,0-4.03-.46-5.7-1.39s-2.99-2.22-3.96-3.87-1.46-3.55-1.46-5.68c0-2.35.5-4.39,1.5-6.13s2.33-3.08,4-4.04c1.67-.96,3.5-1.43,5.49-1.43,2.1,0,3.95.46,5.54,1.37,1.58.92,2.84,2.22,3.75,3.92.92,1.69,1.37,3.76,1.37,6.19,0,.3-.03.53-.08.7s-.26.26-.62.29h-13.94c-.16,0-.29.05-.37.16s-.12.27-.12.49c0,1.01.24,1.91.72,2.68h0ZM516.24,662.53c.3,0,.49-.03.57-.1.08-.07.12-.23.12-.47,0-.68-.16-1.38-.47-2.09s-.78-1.3-1.39-1.78-1.4-.72-2.36-.72c-.9,0-1.71.22-2.42.66s-1.26,1.04-1.64,1.82-.57,1.66-.57,2.64l8.16.04h0Z"/>
      <path class="cls-1" d="M526.49,674.83v-20.13c0-.52.22-.78.66-.78h4.96c.41,0,.62.23.62.7v2.01c0,.16.04.27.12.33s.21,0,.37-.16c.71-.66,1.42-1.23,2.13-1.72s1.46-.87,2.25-1.15c.79-.27,1.64-.41,2.54-.41,2,0,3.57.59,4.74,1.76,1.16,1.18,1.74,2.75,1.74,4.71v14.68c0,.66-.33.98-.98.98h-4.55c-.27,0-.47-.06-.59-.18s-.18-.33-.18-.64v-13.86c0-.93-.25-1.65-.76-2.15s-1.25-.76-2.23-.76c-.57,0-1.11.1-1.6.29-.49.19-.97.47-1.44.84-.46.37-.96.84-1.48,1.42v14.1c0,.63-.36.94-1.07.94h-4.39c-.57,0-.86-.27-.86-.82h0Z"/>
      <path class="cls-1" d="M559.38,658.27c-.3,0-.45.16-.45.49v9.88c0,.93.22,1.59.66,1.99s1.13.59,2.09.59h2.21c.19,0,.34.07.45.21s.16.3.16.49l-.04,2.5c0,.52-.3.85-.9.98-.49.06-1.02.1-1.58.14s-1.12.07-1.68.08-1.1.02-1.62.02c-1.86,0-3.33-.44-4.43-1.33-1.09-.89-1.64-2.21-1.64-3.96v-11.48c0-.41-.18-.62-.53-.62h-2.5c-.52,0-.78-.23-.78-.7v-3.03c0-.41.25-.62.74-.62h2.83c.25,0,.38-.15.41-.45l.57-6.23c.03-.46.23-.7.62-.7h4.47c.44,0,.66.26.66.78v6.15c0,.27.14.41.41.41h4.3c.49,0,.74.22.74.66v3.03c0,.46-.27.7-.82.7h-4.35v.02h0Z"/>
      <path class="cls-1" d="M594.29,645.6c1.38.55,2.47,1.3,3.26,2.25.79.96,1.19,2.1,1.19,3.44,0,.88-.25,1.79-.76,2.75-.51.96-1.22,1.86-2.15,2.71s-2.04,1.59-3.32,2.21c-.19.11-.3.2-.33.29s.04.22.21.41l4.35,4.76c.16.16.3.25.41.25s.26-.11.45-.33c.33-.38.66-.79.98-1.21.33-.42.64-.87.94-1.33s.57-.92.82-1.37.44-.88.57-1.29c.19-.38.52-.5.98-.37l3.16,1.02c.22.06.38.19.49.41s.12.44.04.66c-.27.71-.63,1.43-1.07,2.15s-.94,1.48-1.52,2.28c-.57.79-1.22,1.63-1.93,2.5-.16.25-.25.41-.25.49s.11.19.33.33c.41.33.89.61,1.44.84s1.14.42,1.78.57,1.29.24,1.95.27c.55.03.82.29.82.78v3.57c0,.33-.08.58-.23.76s-.38.27-.68.27c-1.28,0-2.51-.12-3.69-.35s-2.28-.57-3.3-1.02c-1.02-.45-1.95-.96-2.77-1.54-.25-.14-.43-.21-.55-.21s-.31.08-.55.25c-1.34,1.04-2.79,1.81-4.35,2.32s-3.31.76-5.25.76c-3.17,0-5.64-.72-7.4-2.15-1.76-1.44-2.64-3.42-2.64-5.97,0-1.61.54-3.1,1.62-4.47s2.82-2.72,5.23-4.06c.27-.16.42-.31.43-.43s-.1-.32-.35-.59c-.82-.93-1.46-1.9-1.91-2.91s-.68-2-.68-2.95c0-1.45.41-2.74,1.23-3.87s1.94-2.03,3.36-2.69,3.03-.98,4.84-.98,3.4.27,4.78.82l.02-.03h0ZM586.19,662.39c-.16-.01-.36.05-.57.18-.93.52-1.67,1.18-2.24,1.97-.56.79-.84,1.63-.84,2.5,0,.74.21,1.42.61,2.05.41.63.96,1.13,1.66,1.52s1.47.57,2.32.57c.79,0,1.61-.16,2.46-.47s1.56-.72,2.13-1.21c.16-.16.27-.32.33-.47s-.01-.33-.21-.55l-5.12-5.74c-.19-.22-.37-.33-.53-.35h0ZM587.95,649.06c-.52.31-.92.71-1.19,1.19s-.41.98-.41,1.5c0,.41.1.83.31,1.25s.49.84.84,1.25l1.35,1.6c.11.11.24.16.39.14s.29-.05.43-.1c1.17-.57,2.06-1.22,2.64-1.93.59-.71.88-1.5.88-2.38,0-.96-.32-1.69-.96-2.21s-1.46-.78-2.44-.78c-.71,0-1.33.16-1.84.47h0Z"/>
      <path class="cls-1" d="M620.47,645.23h20.66c.41,0,.61.23.61.7l-.04,3.69c0,.57-.29.86-.86.86h-13.08c-.52,0-.78.22-.78.66v5.94c0,.47.21.7.62.7h8.69c.46,0,.7.22.7.66v3.94c0,.16-.05.3-.14.41-.1.11-.27.16-.51.16h-8.77c-.38,0-.57.16-.57.49v6.44c0,.36.15.53.45.53h14.02c.49,0,.74.21.74.62v3.89c0,.22-.06.4-.18.53s-.33.21-.64.21h-20.66c-.6,0-.9-.29-.9-.86v-28.78c0-.52.22-.78.66-.78h-.02Z"/>
      <path class="cls-1" d="M666.57,675.34c-.04.21-.29.31-.76.31h-5.25c-.66,0-1.12-.22-1.39-.66l-4.22-5.94c-.22-.33-.38-.49-.47-.49s-.27.15-.51.45l-4.31,5.99c-.27.44-.72.66-1.35.66h-3.36c-.46,0-.78-.12-.94-.37s-.01-.67.45-1.27l6.72-8.65c.16-.25.24-.46.23-.64s-.1-.39-.27-.63l-6.64-9.02c-.19-.25-.23-.5-.12-.76s.35-.39.74-.39h5c.36,0,.63.05.82.14.19.1.35.27.49.51l3.81,5.37c.25.38.48.38.7,0l3.61-5.37c.16-.25.33-.42.51-.51s.46-.14.84-.14h3.69c.41,0,.63.1.68.29.04.19-.03.41-.23.66l-6.11,8.28c-.19.25-.27.45-.25.62.03.16.12.37.29.61l7.13,9.88c.35.52.51.88.47,1.09v-.02Z"/>
      <path class="cls-1" d="M675.94,654.74v1.23c0,.16.05.25.16.27.11.01.25-.05.41-.18.44-.41.92-.81,1.46-1.19s1.17-.7,1.91-.96,1.61-.39,2.62-.39c1.61,0,3.05.4,4.3,1.21,1.26.81,2.26,2.02,2.99,3.65.74,1.63,1.11,3.71,1.11,6.25s-.38,4.78-1.15,6.48-1.8,2.95-3.12,3.75c-1.31.81-2.8,1.21-4.47,1.21-1.07,0-2.05-.16-2.95-.49s-1.75-.86-2.54-1.6c-.27-.27-.47-.4-.59-.37s-.18.23-.18.62v7.5c0,.46-.21.7-.62.7h-5.04c-.44,0-.66-.25-.66-.74v-26.86c0-.3.07-.53.21-.68s.38-.23.74-.23h4.51c.6,0,.9.27.9.82h0ZM677.66,671.51c.63.38,1.35.57,2.17.57.96,0,1.78-.25,2.48-.76s1.24-1.31,1.62-2.42.57-2.58.57-4.41-.19-3.17-.57-4.18-.92-1.74-1.62-2.17-1.48-.66-2.36-.66c-.77,0-1.46.16-2.07.47s-1.1.72-1.46,1.23c-.36.51-.53,1.03-.53,1.58v9.27c.55.6,1.13,1.09,1.76,1.48h.01Z"/>
      <path class="cls-1" d="M700.81,669.32c.48.78,1.12,1.38,1.93,1.8s1.71.64,2.73.64,1.89-.21,2.73-.64c.83-.42,1.67-1.13,2.52-2.11.11-.11.21-.17.29-.18s.23.03.45.14l2.95,1.23c.38.16.42.44.12.82-.88,1.26-1.79,2.25-2.75,2.99s-2.02,1.26-3.18,1.58c-1.16.31-2.47.47-3.92.47-2.13,0-4.03-.46-5.7-1.39s-2.99-2.22-3.96-3.87c-.97-1.65-1.46-3.55-1.46-5.68,0-2.35.5-4.39,1.5-6.13s2.33-3.08,4-4.04c1.67-.96,3.5-1.43,5.49-1.43,2.1,0,3.95.46,5.54,1.37,1.58.92,2.84,2.22,3.75,3.92.92,1.69,1.37,3.76,1.37,6.19,0,.3-.03.53-.08.7s-.26.26-.62.29h-13.94c-.16,0-.29.05-.37.16s-.12.27-.12.49c0,1.01.24,1.91.72,2.68h.01ZM708.33,662.53c.3,0,.49-.03.57-.1s.12-.23.12-.47c0-.68-.16-1.38-.47-2.09s-.78-1.3-1.39-1.78-1.4-.72-2.36-.72c-.9,0-1.71.22-2.42.66s-1.26,1.04-1.64,1.82-.57,1.66-.57,2.64l8.16.04h0Z"/>
      <path class="cls-1" d="M718.78,675.45c-.14-.14-.21-.34-.21-.62v-20.13c0-.52.22-.78.66-.78h4.8c.44,0,.66.23.66.7v2.42c0,.16.06.27.18.31s.25-.02.39-.18c.55-.74,1.17-1.38,1.87-1.93s1.41-.97,2.15-1.27c.74-.3,1.43-.45,2.09-.45.98,0,1.48.23,1.48.7v4.76c0,.44-.21.61-.62.53-.49-.14-1-.23-1.52-.27s-.97-.06-1.35-.06c-.49,0-1,.1-1.54.29-.53.19-1.02.47-1.46.82-.44.36-.79.74-1.07,1.15-.27.41-.41.85-.41,1.31v11.97c0,.63-.36.94-1.07.94h-4.39c-.3,0-.52-.07-.66-.21h.02Z"/>
      <path class="cls-1" d="M742.44,650.27c0,.68-.37,1.03-1.11,1.03h-4.43c-.36,0-.59-.08-.72-.25s-.18-.4-.18-.7v-4.3c0-.55.23-.82.7-.82h5.08c.44,0,.66.26.66.78v4.26h0ZM742.36,674.67c0,.36-.08.61-.25.76-.16.15-.45.23-.86.23h-4.3c-.36,0-.59-.07-.72-.21s-.18-.35-.18-.66v-20.09c0-.52.22-.78.66-.78h5.04c.41,0,.62.23.62.7v20.05h-.01Z"/>
      <path class="cls-1" d="M753.16,669.32c.48.78,1.12,1.38,1.93,1.8s1.71.64,2.73.64,1.89-.21,2.73-.64c.83-.42,1.67-1.13,2.52-2.11.11-.11.21-.17.29-.18s.23.03.45.14l2.95,1.23c.38.16.42.44.12.82-.88,1.26-1.79,2.25-2.75,2.99s-2.02,1.26-3.18,1.58c-1.16.31-2.47.47-3.92.47-2.13,0-4.03-.46-5.7-1.39s-2.99-2.22-3.96-3.87c-.97-1.65-1.46-3.55-1.46-5.68,0-2.35.5-4.39,1.5-6.13s2.33-3.08,4-4.04c1.67-.96,3.5-1.43,5.49-1.43,2.1,0,3.95.46,5.54,1.37,1.58.92,2.84,2.22,3.75,3.92.92,1.69,1.37,3.76,1.37,6.19,0,.3-.03.53-.08.7s-.26.26-.62.29h-13.94c-.16,0-.29.05-.37.16s-.12.27-.12.49c0,1.01.24,1.91.72,2.68h.01ZM760.69,662.53c.3,0,.49-.03.57-.1s.12-.23.12-.47c0-.68-.16-1.38-.47-2.09s-.78-1.3-1.39-1.78-1.4-.72-2.36-.72c-.9,0-1.71.22-2.42.66s-1.26,1.04-1.64,1.82-.57,1.66-.57,2.64l8.16.04h0Z"/>
      <path class="cls-1" d="M770.93,674.83v-20.13c0-.52.22-.78.66-.78h4.96c.41,0,.62.23.62.7v2.01c0,.16.04.27.12.33s.21,0,.37-.16c.71-.66,1.42-1.23,2.13-1.72s1.46-.87,2.25-1.15c.79-.27,1.64-.41,2.54-.41,2,0,3.57.59,4.74,1.76,1.16,1.18,1.74,2.75,1.74,4.71v14.68c0,.66-.33.98-.98.98h-4.55c-.27,0-.47-.06-.59-.18s-.18-.33-.18-.64v-13.86c0-.93-.25-1.65-.76-2.15s-1.25-.76-2.23-.76c-.57,0-1.11.1-1.6.29s-.97.47-1.44.84c-.46.37-.96.84-1.48,1.42v14.1c0,.63-.36.94-1.07.94h-4.39c-.57,0-.86-.27-.86-.82h0Z"/>
      <path class="cls-1" d="M809.82,654.43c1.24.62,2.26,1.4,3.05,2.36s1.35,1.94,1.68,2.95c.19.55.03.83-.49.86l-4.3.41c-.3.03-.51-.12-.62-.45-.25-.52-.52-1-.82-1.44s-.67-.79-1.11-1.07-1.01-.41-1.72-.41c-.93,0-1.75.26-2.46.78s-1.26,1.31-1.66,2.36c-.4,1.05-.59,2.38-.59,4s.21,2.99.62,4.06.99,1.86,1.74,2.38,1.65.78,2.69.78c1.2,0,2.15-.31,2.85-.94s1.36-1.48,1.99-2.54c.08-.14.16-.22.25-.25s.23-.01.45.04l3.03.7c.3.08.4.34.29.78-.22.6-.56,1.27-1.03,2.01-.46.74-1.07,1.42-1.82,2.05s-1.67,1.15-2.75,1.58c-1.08.42-2.34.64-3.79.64-2.1,0-3.98-.47-5.62-1.42-1.64-.94-2.93-2.25-3.87-3.94s-1.41-3.63-1.41-5.84.48-4.22,1.43-5.92c.96-1.71,2.25-3.04,3.89-4s3.5-1.43,5.58-1.43c1.78,0,3.29.31,4.53.92h-.01Z"/>
      <path class="cls-1" d="M824.09,669.32c.48.78,1.12,1.38,1.93,1.8s1.71.64,2.73.64,1.89-.21,2.73-.64c.83-.42,1.67-1.13,2.52-2.11.11-.11.21-.17.29-.18s.23.03.45.14l2.95,1.23c.38.16.42.44.12.82-.88,1.26-1.79,2.25-2.75,2.99s-2.02,1.26-3.18,1.58c-1.16.31-2.47.47-3.92.47-2.13,0-4.03-.46-5.7-1.39s-2.99-2.22-3.96-3.87c-.97-1.65-1.46-3.55-1.46-5.68,0-2.35.5-4.39,1.5-6.13s2.33-3.08,4-4.04c1.67-.96,3.5-1.43,5.49-1.43,2.1,0,3.95.46,5.54,1.37,1.58.92,2.84,2.22,3.75,3.92.92,1.69,1.37,3.76,1.37,6.19,0,.3-.03.53-.08.7s-.26.26-.62.29h-13.94c-.16,0-.29.05-.37.16s-.12.27-.12.49c0,1.01.24,1.91.72,2.68h.01ZM831.61,662.53c.3,0,.49-.03.57-.1s.12-.23.12-.47c0-.68-.16-1.38-.47-2.09s-.78-1.3-1.39-1.78-1.4-.72-2.36-.72c-.9,0-1.71.22-2.42.66s-1.26,1.04-1.64,1.82-.57,1.66-.57,2.64l8.16.04h0Z"/>
      <path class="cls-1" d="M849.41,645.97c0-.22.07-.4.21-.53s.34-.21.62-.21h23.53c.3,0,.51.07.64.21s.18.31.18.53v3.81c0,.41-.25.62-.74.62h-7.67c-.3,0-.45.14-.45.41v24.07c0,.52-.23.78-.7.78h-5.86c-.41,0-.62-.23-.62-.7v-24.03c0-.36-.15-.53-.45-.53h-7.91c-.52,0-.78-.21-.78-.62v-3.81h0Z"/>
      <path class="cls-1" d="M879.81,669.32c.48.78,1.12,1.38,1.93,1.8s1.71.64,2.73.64,1.89-.21,2.73-.64c.83-.42,1.67-1.13,2.52-2.11.11-.11.21-.17.29-.18s.23.03.45.14l2.95,1.23c.38.16.42.44.12.82-.88,1.26-1.79,2.25-2.75,2.99s-2.02,1.26-3.18,1.58c-1.16.31-2.47.47-3.92.47-2.13,0-4.03-.46-5.7-1.39s-2.99-2.22-3.96-3.87c-.97-1.65-1.46-3.55-1.46-5.68,0-2.35.5-4.39,1.5-6.13s2.33-3.08,4-4.04c1.67-.96,3.5-1.43,5.49-1.43,2.1,0,3.95.46,5.54,1.37,1.58.92,2.84,2.22,3.75,3.92.92,1.69,1.37,3.76,1.37,6.19,0,.3-.03.53-.08.7s-.26.26-.62.29h-13.94c-.16,0-.29.05-.37.16s-.12.27-.12.49c0,1.01.24,1.91.72,2.68h.01ZM887.33,662.53c.3,0,.49-.03.57-.1s.12-.23.12-.47c0-.68-.16-1.38-.47-2.09s-.78-1.3-1.39-1.78-1.4-.72-2.36-.72c-.9,0-1.71.22-2.42.66s-1.26,1.04-1.64,1.82-.57,1.66-.57,2.64l8.16.04h0Z"/>
      <path class="cls-1" d="M906.42,675.39c-1.05.45-2.26.68-3.63.68-2.08,0-3.71-.56-4.9-1.68s-1.78-2.55-1.78-4.3c0-1.53.48-2.87,1.43-4.02.96-1.15,2.32-2.04,4.1-2.69,1.78-.64,3.89-.99,6.35-1.05l1.43-.12c.16,0,.31-.04.45-.12s.21-.23.21-.45v-.86c0-1.04-.3-1.85-.9-2.44-.6-.59-1.46-.88-2.58-.88-.82,0-1.61.18-2.36.55s-1.39,1-1.91,1.91c-.08.19-.18.31-.29.37s-.31.05-.61,0l-4.1-.94c-.16-.05-.28-.14-.35-.27-.07-.12-.02-.39.14-.8.68-1.61,1.87-2.81,3.55-3.59s3.75-1.17,6.21-1.17c2.27,0,4.07.29,5.41.86,1.34.57,2.31,1.37,2.91,2.4s.9,2.22.9,3.59v14.39c0,.33-.06.56-.16.7-.11.14-.31.21-.62.21h-4.22c-.3,0-.51-.11-.64-.33s-.2-.49-.23-.82l-.08-.9c-.05-.49-.36-.51-.9-.04-.85.77-1.8,1.37-2.85,1.82h.02,0ZM909.47,665.28l-1.15.08c-.71.03-1.42.13-2.13.31s-1.35.42-1.93.74c-.57.31-1.05.71-1.42,1.19s-.55,1.03-.55,1.66c0,.82.29,1.47.86,1.95s1.37.72,2.38.72c.68,0,1.29-.11,1.82-.33s.99-.48,1.37-.78c.41-.36.74-.71.98-1.07.25-.35.37-.72.37-1.11v-2.67c0-.46-.21-.7-.62-.7h.02Z"/>
      <path class="cls-1" d="M920.67,674.83v-20.13c0-.52.22-.78.66-.78h4.92c.41,0,.62.23.62.7v2.01c0,.16.05.27.14.33s.21,0,.35-.16c.71-.66,1.42-1.23,2.13-1.72s1.46-.88,2.25-1.17,1.61-.43,2.46-.43c1.48,0,2.71.35,3.71,1.04,1,.7,1.7,1.62,2.11,2.77.05.11.13.16.22.14.1-.01.2-.08.31-.18.66-.71,1.37-1.35,2.15-1.91s1.6-1,2.48-1.33c.87-.33,1.74-.49,2.58-.49,1.91,0,3.44.59,4.57,1.76,1.13,1.18,1.7,2.79,1.7,4.84v14.55c0,.66-.33.98-.98.98h-4.55c-.27,0-.47-.06-.59-.18-.12-.12-.18-.33-.18-.64v-13.86c0-.93-.25-1.65-.74-2.15s-1.19-.76-2.09-.76c-.52,0-1.03.11-1.52.33s-.94.48-1.35.78-.77.63-1.07.98c-.19.19-.31.38-.37.55s-.08.38-.08.59v13.37c0,.66-.33.98-.98.98h-4.51c-.27,0-.47-.06-.59-.18s-.18-.33-.18-.64v-13.86c0-.93-.25-1.65-.74-2.15s-1.2-.76-2.13-.76c-.82,0-1.57.21-2.25.64-.68.42-1.39,1.06-2.13,1.91v14.1c0,.63-.36.94-1.07.94h-4.39c-.57,0-.86-.27-.86-.82h0Z"/>
    </g>
  </g>
</svg>