<?xml version="1.0" encoding="UTF-8"?>
<svg id="Layer_2" xmlns="http://www.w3.org/2000/svg" version="1.1" viewBox="0 0 835.2 285.7">
  <!-- Generator: Adobe Illustrator 30.1.0, SVG Export Plug-In . SVG Version: 2.1.1 Build 136)  -->
  <defs>
    <style>
      .st0 {
        fill: #63bb46;
      }

      .st1 {
        fill: #002e6d;
      }
    </style>
  </defs>
  <path class="st0" d="M190.1,0C192.8,0,194.1,1.5,194.1,4.6v218.8c0,1.4-.5,2.6-1.5,3.5s-2.5,1.4-4.3,1.4h-31.1c-1.6,0-3-.2-4-.6-1-.4-2.3-1.4-3.7-3.1L51.2,86.8c-.8-1-1.6-1.4-2.3-1.2-.7.2-1.1.8-1.1,1.8v135.4c.2,3.7-1.8,5.5-6.2,5.5H9.7c-4.1,0-6.2-1.7-6.2-5.2V5.9C3.5,2,5.3,0,9,0h37.2C48.5,0,50.2.3,51.3.9c1.1.6,2.4,1.8,3.8,3.7l90.5,129c1.2,1.6,2.3,2.4,3.2,2.1.9-.2,1.4-1.2,1.4-3.1V5.6c0-3.7,1.9-5.5,5.5-5.5h34.4Z"/>
  <path class="st1" d="M242.1,0h155.1C400.3,0,401.8,1.7,401.8,5.2l-.3,27.7c0,4.3-2.2,6.5-6.5,6.5h-98.2c-3.9,0-5.9,1.7-5.9,4.9v44.6c0,3.5,1.5,5.2,4.6,5.2h65.2c3.5,0,5.2,1.6,5.2,4.9v29.5c0,1.2-.4,2.3-1.1,3.1s-2,1.2-3.9,1.2h-65.9c-2.9,0-4.3,1.2-4.3,3.7v48.3c0,2.7,1.1,4,3.4,4h105.3c3.7,0,5.5,1.5,5.5,4.6v29.2c0,1.6-.5,3-1.4,4s-2.5,1.5-4.8,1.5h-155.1c-4.5,0-6.8-2.1-6.8-6.5V5.8C237.2,1.9,238.8,0,242.1,0h0Z"/>
  <path class="st1" d="M631.4,225.8c-1,1.8-3.2,2.6-6.5,2.6h-42.8c-4.7,0-8-1.5-9.8-4.6l-43.4-69.9c-1.7-2.5-3-3.7-4-3.9-1-.1-2.4,1.2-4,3.9l-43.1,69.9c-.8,1.6-2.1,2.8-3.9,3.5s-3.9,1.1-6.3,1.1h-34.2c-3.3,0-5.4-.8-6.3-2.5-.9-1.6.1-4.8,3.2-9.5l64.6-98.8c1.2-1.8,1.8-3.4,1.7-4.8-.1-1.3-.8-3-2-5.1L430.1,8.3c-1.2-1.6-1.6-3.4-1.1-5.4S431.1,0,433.8,0h44.9C481.4,0,483.4.4,484.7,1.2c1.3.8,2.5,2,3.5,3.7l38.2,62.5c1,1.6,2.1,2.5,3.2,2.5s2.2-.8,3.2-2.5l38.2-62.5c1-1.6,2.2-2.9,3.5-3.7C575.8.4,577.7,0,580.2,0h37.5c2.9,0,4.5.9,4.8,2.6.3,1.8-.3,3.4-1.7,5.1l-62.2,94.2c-1.2,1.8-1.8,3.4-1.5,4.6.2,1.2.8,2.9,1.8,4.9l69.2,105c3.1,4.5,4.1,7.6,3.1,9.4h.2Z"/>
  <path class="st0" d="M646.2,5.6c0-1.6.5-3,1.5-4s2.6-1.5,4.6-1.5h176.7c2.3,0,3.8.5,4.8,1.5.9,1,1.4,2.4,1.4,4v28.6c0,3.1-1.8,4.6-5.5,4.6h-57.6c-2.3,0-3.4,1-3.4,3.1v180.7c0,3.9-1.8,5.9-5.2,5.9h-44c-3.1,0-4.6-1.7-4.6-5.2V42.8c0-2.7-1.1-4-3.4-4h-59.4c-3.9,0-5.8-1.5-5.8-4.6V5.6h0Z"/>
  <g>
    <path class="st1" d="M24.8,248.1c.4,0,.5.2.5.6v29.1c0,.2,0,.4-.2.5s-.3.2-.6.2h-4.6c-.1,0-.3-.2-.5-.4l-13.1-18.4c0-.1-.2-.2-.3-.2s0,.1,0,.2v18c0,.5-.2.7-.8.7H.8c-.6,0-.8-.2-.8-.7v-28.9c0-.5.2-.8.7-.8h5c.3,0,.5,0,.7.1s.3.2.5.5l12,17.2c.2.2.3.3.4.3s.2-.2.2-.4v-16.9c0-.5.2-.7.7-.7h4.6,0Z"/>
    <path class="st1" d="M36.8,272.1c.5.8,1.1,1.4,1.9,1.8s1.7.6,2.7.6,1.9-.2,2.7-.6,1.7-1.1,2.5-2.1c0-.1.2-.2.3-.2s.2,0,.5.1l3,1.2c.4.2.4.4,0,.8-.9,1.3-1.8,2.2-2.8,3s-2,1.3-3.2,1.6c-1.2.3-2.5.5-3.9.5-2.1,0-4-.5-5.7-1.4s-3-2.2-4-3.9-1.5-3.5-1.5-5.7.5-4.4,1.5-6.1,2.3-3.1,4-4c1.7-1,3.5-1.4,5.5-1.4s4,.5,5.5,1.4c1.6.9,2.8,2.2,3.8,3.9.9,1.7,1.4,3.8,1.4,6.2s0,.5,0,.7-.3.3-.6.3h-13.9c-.2,0-.3,0-.4.2s0,.3,0,.5c0,1,.2,1.9.7,2.7h0ZM44.3,265.4c.3,0,.5,0,.6-.1,0,0,0-.2,0-.5,0-.7-.2-1.4-.5-2.1s-.8-1.3-1.4-1.8-1.4-.7-2.4-.7-1.7.2-2.4.7-1.3,1-1.6,1.8-.6,1.7-.6,2.6h8.2Z"/>
    <path class="st1" d="M84.2,257c0,.2,0,.4,0,.7l-6.7,20.1c0,.2-.2.4-.3.5s-.3.1-.6.1h-3.4c-.6,0-.9-.3-1.1-.8l-3.5-11.3c0-.3-.2-.4-.3-.4s-.2.1-.2.4l-3.6,11.4c0,.2,0,.4-.3.5s-.3.1-.6.1h-3.5c-.5,0-.9-.3-1-.8l-6.6-20v-.7c0-.2.3-.3.6-.3h4.8c.2,0,.4,0,.5.2.2.1.3.3.3.5l3.7,11.6c0,.2,0,.4.3.4s.2-.1.3-.4l3.5-11.6c0-.2.2-.4.3-.5s.3-.2.6-.2h3.4c.2,0,.4,0,.6.2s.3.3.3.5l3.6,11.6c0,.2.2.4.3.4s.2-.1.3-.4l3.5-11.6c0-.2.2-.4.4-.5s.3-.2.6-.2h3.1c.3,0,.5.1.6.3h0v.2Z"/>
    <path class="st1" d="M96.5,261.1c-.3,0-.4.2-.4.5v9.9c0,.9.2,1.6.7,2s1.1.6,2.1.6h2.2c.2,0,.3,0,.4.2s.2.3.2.5v2.5c0,.5-.3.9-.9,1-.5,0-1,.1-1.6.1h-3.3c-1.9,0-3.3-.4-4.4-1.3s-1.6-2.2-1.6-4v-11.5c0-.4-.2-.6-.5-.6h-2.5c-.5,0-.8-.2-.8-.7v-3c0-.4.2-.6.7-.6h2.8c.2,0,.4-.1.4-.5l.6-6.2c0-.5.2-.7.6-.7h4.5c.4,0,.7.3.7.8v6.1c0,.3,0,.4.4.4h4.3c.5,0,.7.2.7.7v3c0,.5-.3.7-.8.7h-4.5Z"/>
    <path class="st1" d="M108.7,277.5c-1.7-1-2.9-2.3-3.9-4-.9-1.7-1.4-3.6-1.4-5.8s.5-4.3,1.4-6c1-1.7,2.3-3,3.9-4s3.6-1.4,5.7-1.4,4.1.5,5.8,1.5,2.9,2.3,3.8,4,1.4,3.7,1.4,5.9-.5,4.1-1.4,5.8c-.9,1.7-2.2,3-3.9,4s-3.6,1.4-5.8,1.4-4.1-.5-5.7-1.4h0ZM117,273.9c.7-.5,1.2-1.3,1.5-2.4s.5-2.4.5-3.9-.2-2.9-.5-4c-.3-1-.8-1.9-1.5-2.4s-1.5-.8-2.5-.8-1.8.3-2.5.8-1.2,1.4-1.6,2.4-.5,2.4-.5,4,.2,2.9.5,3.9.9,1.8,1.6,2.4c.7.5,1.5.8,2.5.8s1.9-.3,2.5-.8h0Z"/>
    <path class="st1" d="M158,257c.1.2.1.4,0,.7l-6.7,20.1c0,.2-.2.4-.3.5s-.3.1-.6.1h-3.4c-.6,0-.9-.3-1.1-.8l-3.5-11.3c-.1-.3-.2-.4-.3-.4s-.2.1-.2.4l-3.6,11.4c0,.2-.1.4-.3.5s-.3.1-.6.1h-3.5c-.5,0-.9-.3-1-.8l-6.6-20v-.7c0-.2.3-.3.6-.3h4.8c.2,0,.4,0,.6.2.2.1.3.3.4.5l3.6,11.6c0,.2.1.4.3.4s.2-.1.3-.4l3.5-11.6c0-.2.2-.4.3-.5s.4-.2.6-.2h3.4c.2,0,.4,0,.6.2s.3.3.3.5l3.6,11.6c0,.2.2.4.3.4s.2-.1.3-.4l3.5-11.6c.1-.2.2-.4.4-.5s.3-.2.6-.2h3.1c.3,0,.5.1.6.3h0v.2Z"/>
    <path class="st1" d="M161.2,277.7v-20.1c0-.5.2-.8.7-.8h5c.4,0,.6.2.6.7v2c0,.2,0,.3.1.3s.2,0,.4-.2c.7-.7,1.4-1.2,2.1-1.7s1.5-.9,2.3-1.1c.8-.3,1.6-.4,2.5-.4,2,0,3.6.6,4.7,1.8,1.2,1.2,1.7,2.8,1.7,4.7v14.7c0,.7-.3,1-1,1h-4.6c-.3,0-.5,0-.6-.2s-.2-.3-.2-.6v-13.9c0-.9-.2-1.6-.8-2.1-.5-.5-1.2-.8-2.2-.8s-1.1.1-1.6.3-1,.5-1.4.8c-.5.4-1,.8-1.5,1.4v14.1c0,.6-.4.9-1.1.9h-4.4c-.6,0-.9-.3-.9-.8h.2Z"/>
    <path class="st1" d="M195.4,248.1h20.7c.4,0,.6.2.6.7v3.7c0,.6-.3.9-.9.9h-13.1c-.5,0-.8.2-.8.7v5.9c0,.5.2.7.6.7h8.7c.5,0,.7.2.7.7v3.9c0,.2,0,.3-.1.4s-.3.2-.5.2h-8.8c-.4,0-.6.2-.6.5v6.4c0,.4.1.5.4.5h14c.5,0,.7.2.7.6v3.9c0,.2,0,.4-.2.5s-.3.2-.6.2h-20.7c-.6,0-.9-.3-.9-.9v-28.8c0-.5.2-.8.7-.8h.1Z"/>
    <path class="st1" d="M220.9,277.7v-20.1c0-.5.2-.8.7-.8h5c.4,0,.6.2.6.7v2c0,.2,0,.3.1.3s.2,0,.4-.2c.7-.7,1.4-1.2,2.1-1.7s1.5-.9,2.2-1.1c.8-.3,1.6-.4,2.5-.4,2,0,3.6.6,4.7,1.8,1.2,1.2,1.7,2.8,1.7,4.7v14.7c0,.7-.3,1-1,1h-4.6c-.3,0-.5,0-.6-.2s-.2-.3-.2-.6v-13.9c0-.9-.2-1.6-.8-2.1s-1.2-.8-2.2-.8-1.1.1-1.6.3-1,.5-1.4.8c-.5.4-1,.8-1.5,1.4v14.1c0,.6-.4.9-1.1.9h-4.4c-.6,0-.9-.3-.9-.8h.3Z"/>
    <path class="st1" d="M267.9,256c.1.1.2.4.2.7v2.8c0,.4,0,.6-.2.8-.2.1-.4.2-.7.1-.4,0-.7,0-1-.1h-.9c-.7.1-1,.4-.8.9,0,.2.1.5.2.8,0,.3.1.6.1,1,0,1.2-.4,2.4-1.1,3.4s-1.8,1.8-3.3,2.4-3.3.9-5.5.9-2,0-2.6.2c-.7.1-1.1.3-1.4.5s-.4.4-.4.7.2.6.6.8c.4.1,1.1.2,1.9.3l5.9.3c2.8.2,4.8.8,6.1,1.9,1.3,1.1,1.9,2.4,1.9,4.1s-1,3.8-3,5.1-4.9,2-8.7,2-6.9-.4-8.9-1.3-3-2.2-3-4,.4-1.7,1.1-2.3,1.7-1.1,2.8-1.5c.4-.1.4-.3,0-.5-.7-.3-1.2-.7-1.7-1.2-.4-.5-.7-1.1-.7-1.8s.2-1,.5-1.5c.4-.5.8-.9,1.4-1.2.6-.4,1.3-.7,2-1,.1,0,.2-.1.3-.2,0-.1,0-.2-.2-.3-1.3-.6-2.3-1.4-2.9-2.3s-1-2-1-3.3c0-2,.9-3.7,2.6-4.9s4.3-1.9,7.7-1.9,2.8.2,3.9.5,2,.8,2.7,1.4c.2.1.4.2.6.2s.4-.1.5-.3c.4-.4.8-.8,1.3-1.2.5-.4,1-.6,1.6-.9s1-.3,1.4-.3.4,0,.6.2h0ZM251.9,277.3c-.6,0-1.1,0-1.6.2s-.9.5-1.2.8-.5.8-.5,1.2.2,1.2.7,1.6c.5.5,1.2.8,2.2,1.1,1,.2,2.4.4,4.2.4s3.3-.2,4.2-.8,1.5-1.2,1.5-2.1-.3-1.1-.8-1.5-1.4-.6-2.4-.7l-6.3-.3h0ZM258.1,265.8c.7-.7,1-1.5,1-2.5s-.3-2-1-2.7-1.7-1-3.2-1-2.4.4-3.1,1-1.1,1.6-1.1,2.7.4,1.8,1.1,2.5,1.8,1,3.1,1,2.5-.3,3.2-1Z"/>
    <path class="st1" d="M279.4,278.2c-1,.5-2.3.7-3.6.7-2.1,0-3.7-.6-4.9-1.7s-1.8-2.5-1.8-4.3.5-2.9,1.4-4c1-1.1,2.3-2,4.1-2.7,1.8-.6,3.9-1,6.4-1h1.4c.2-.1.3-.2.5-.2s.2-.2.2-.5v-.9c0-1-.3-1.9-.9-2.4s-1.5-.9-2.6-.9-1.6.2-2.4.5-1.4,1-1.9,1.9c0,.2-.2.3-.3.4s-.3,0-.6,0l-4.1-.9c-.2,0-.3-.1-.4-.3,0-.1,0-.4.1-.8.7-1.6,1.9-2.8,3.5-3.6s3.8-1.2,6.2-1.2,4.1.3,5.4.9,2.3,1.4,2.9,2.4.9,2.2.9,3.6v14.4c0,.3,0,.6-.2.7-.1.1-.3.2-.6.2h-4.2c-.3,0-.5-.1-.6-.3s-.2-.5-.2-.8v-.9c-.1-.5-.4-.5-1,0-.9.8-1.8,1.4-2.9,1.8h.2ZM282.5,268.1h-1.1c-.7.1-1.4.2-2.1.4s-1.4.4-1.9.7c-.6.3-1,.7-1.4,1.2s-.5,1-.5,1.7.3,1.5.9,2,1.4.7,2.4.7,1.3-.1,1.8-.3,1-.5,1.4-.8c.4-.4.7-.7,1-1.1.2-.4.4-.7.4-1.1v-2.7c0-.5-.2-.7-.6-.7h-.3Z"/>
    <path class="st1" d="M316.2,256c.1.1.2.4.2.7v2.8c0,.4,0,.6-.2.8-.2.1-.4.2-.7.1-.4,0-.7,0-1-.1h-.9c-.7.1-1,.4-.8.9,0,.2.1.5.2.8,0,.3.1.6.1,1,0,1.2-.4,2.4-1.1,3.4s-1.8,1.8-3.3,2.4-3.3.9-5.5.9-2,0-2.6.2c-.7.1-1.1.3-1.4.5s-.4.4-.4.7.2.6.6.8c.4.1,1.1.2,2,.3l5.9.3c2.8.2,4.8.8,6.1,1.9,1.3,1.1,1.9,2.4,1.9,4.1s-1,3.8-3,5.1-4.9,2-8.7,2-6.9-.4-8.9-1.3-3-2.2-3-4,.4-1.7,1.1-2.3,1.7-1.1,2.8-1.5c.4-.1.4-.3,0-.5-.7-.3-1.2-.7-1.7-1.2s-.7-1.1-.7-1.8.2-1,.5-1.5c.4-.5.8-.9,1.4-1.2.6-.4,1.3-.7,2-1,.1,0,.2-.1.3-.2,0-.1,0-.2-.2-.3-1.3-.6-2.3-1.4-3-2.3s-1-2-1-3.3c0-2,.9-3.7,2.6-4.9s4.3-1.9,7.7-1.9,2.8.2,3.9.5,2,.8,2.7,1.4c.2.1.4.2.6.2s.4-.1.5-.3c.4-.4.8-.8,1.3-1.2.5-.4,1-.6,1.6-.9s1-.3,1.4-.3.4,0,.6.2h.1ZM300.2,277.3c-.5,0-1.1,0-1.6.2s-.9.5-1.2.8-.5.8-.5,1.2.2,1.2.7,1.6,1.2.8,2.2,1.1c1,.2,2.4.4,4.2.4s3.3-.2,4.2-.8,1.5-1.2,1.5-2.1-.3-1.1-.8-1.5-1.4-.6-2.4-.7l-6.3-.3h0ZM306.4,265.8c.7-.7,1-1.5,1-2.5s-.3-2-1-2.7-1.7-1-3.2-1-2.4.4-3.1,1-1.1,1.6-1.1,2.7.4,1.8,1.1,2.5,1.8,1,3.1,1,2.5-.3,3.2-1Z"/>
    <path class="st1" d="M324.6,272.1c.5.8,1.1,1.4,1.9,1.8s1.7.6,2.7.6,1.9-.2,2.7-.6c.8-.4,1.7-1.1,2.5-2.1.1-.1.2-.2.3-.2s.2,0,.5.1l3,1.2c.4.2.4.4.1.8-.9,1.3-1.8,2.2-2.8,3s-2,1.3-3.2,1.6c-1.2.3-2.5.5-3.9.5-2.1,0-4-.5-5.7-1.4s-3-2.2-4-3.9-1.5-3.5-1.5-5.7.5-4.4,1.5-6.1,2.3-3.1,4-4c1.7-1,3.5-1.4,5.5-1.4s4,.5,5.5,1.4c1.6.9,2.8,2.2,3.8,3.9.9,1.7,1.4,3.8,1.4,6.2s0,.5,0,.7-.3.3-.6.3h-13.9c-.2,0-.3,0-.4.2s-.1.3-.1.5c0,1,.2,1.9.7,2.7h0ZM332.1,265.4c.3,0,.5,0,.6-.1,0,0,.1-.2.1-.5,0-.7-.2-1.4-.5-2.1s-.8-1.3-1.4-1.8-1.4-.7-2.4-.7-1.7.2-2.4.7-1.3,1-1.6,1.8-.6,1.7-.6,2.6h8.2,0Z"/>
    <path class="st1" d="M342.4,277.7v-20.1c0-.5.2-.8.7-.8h4.9c.4,0,.6.2.6.7v2c0,.2,0,.3.1.3,0,0,.2,0,.4-.2.7-.7,1.4-1.2,2.1-1.7s1.5-.9,2.2-1.2,1.6-.4,2.5-.4c1.5,0,2.7.4,3.7,1,1,.7,1.7,1.6,2.1,2.8,0,.1.1.2.2.1.1,0,.2,0,.3-.2.7-.7,1.4-1.4,2.1-1.9s1.6-1,2.5-1.3,1.7-.5,2.6-.5c1.9,0,3.4.6,4.6,1.8,1.1,1.2,1.7,2.8,1.7,4.8v14.5c0,.7-.3,1-1,1h-4.5c-.3,0-.5,0-.6-.2s-.2-.3-.2-.6v-13.9c0-.9-.2-1.6-.7-2.1s-1.2-.8-2.1-.8-1,.1-1.5.3-.9.5-1.4.8-.8.6-1.1,1c-.2.2-.3.4-.4.5s0,.4,0,.6v13.4c0,.7-.3,1-1,1h-4.5c-.3,0-.5,0-.6-.2s-.2-.3-.2-.6v-13.9c0-.9-.2-1.6-.7-2.1s-1.2-.8-2.1-.8-1.6.2-2.2.6c-.7.4-1.4,1.1-2.1,1.9v14.1c0,.6-.4.9-1.1.9h-4.4c-.6,0-.9-.3-.9-.8h0v.2Z"/>
    <path class="st1" d="M386.3,272.1c.5.8,1.1,1.4,1.9,1.8s1.7.6,2.7.6,1.9-.2,2.7-.6c.8-.4,1.7-1.1,2.5-2.1.1-.1.2-.2.3-.2s.2,0,.5.1l3,1.2c.4.2.4.4.1.8-.9,1.3-1.8,2.2-2.8,3s-2,1.3-3.2,1.6c-1.2.3-2.5.5-3.9.5-2.1,0-4-.5-5.7-1.4s-3-2.2-4-3.9-1.5-3.5-1.5-5.7.5-4.4,1.5-6.1,2.3-3.1,4-4c1.7-1,3.5-1.4,5.5-1.4s4,.5,5.5,1.4c1.6.9,2.8,2.2,3.8,3.9.9,1.7,1.4,3.8,1.4,6.2s0,.5,0,.7-.3.3-.6.3h-13.9c-.2,0-.3,0-.4.2s-.1.3-.1.5c0,1,.2,1.9.7,2.7h0ZM393.8,265.4c.3,0,.5,0,.6-.1,0,0,.1-.2.1-.5,0-.7-.2-1.4-.5-2.1s-.8-1.3-1.4-1.8-1.4-.7-2.4-.7-1.7.2-2.4.7-1.3,1-1.6,1.8-.6,1.7-.6,2.6h8.2,0Z"/>
    <path class="st1" d="M404.1,277.7v-20.1c0-.5.2-.8.7-.8h5c.4,0,.6.2.6.7v2c0,.2,0,.3.1.3s.2,0,.4-.2c.7-.7,1.4-1.2,2.1-1.7s1.5-.9,2.2-1.1c.8-.3,1.6-.4,2.5-.4,2,0,3.6.6,4.7,1.8,1.2,1.2,1.7,2.8,1.7,4.7v14.7c0,.7-.3,1-1,1h-4.5c-.3,0-.5,0-.6-.2s-.2-.3-.2-.6v-13.9c0-.9-.2-1.6-.8-2.1s-1.2-.8-2.2-.8-1.1.1-1.6.3c-.5.2-1,.5-1.4.8-.5.4-1,.8-1.5,1.4v14.1c0,.6-.4.9-1.1.9h-4.4c-.6,0-.9-.3-.9-.8h.2Z"/>
    <path class="st1" d="M437,261.1c-.3,0-.5.2-.5.5v9.9c0,.9.2,1.6.7,2s1.1.6,2.1.6h2.2c.2,0,.3,0,.5.2s.2.3.2.5v2.5c0,.5-.3.9-.9,1-.5,0-1,.1-1.6.1h-3.3c-1.9,0-3.3-.4-4.4-1.3s-1.6-2.2-1.6-4v-11.5c0-.4-.2-.6-.5-.6h-2.5c-.5,0-.8-.2-.8-.7v-3c0-.4.2-.6.7-.6h2.8c.2,0,.4-.1.4-.5l.6-6.2c0-.5.2-.7.6-.7h4.5c.4,0,.7.3.7.8v6.1c0,.3.1.4.4.4h4.3c.5,0,.7.2.7.7v3c0,.5-.3.7-.8.7h-4.5Z"/>
    <path class="st1" d="M471.9,248.4c1.4.6,2.5,1.3,3.3,2.2.8,1,1.2,2.1,1.2,3.4s-.2,1.8-.8,2.8c-.5,1-1.2,1.9-2.1,2.7s-2,1.6-3.3,2.2c-.2.1-.3.2-.3.3s0,.2.2.4l4.4,4.8c.2.2.3.2.4.2s.3-.1.5-.3c.3-.4.7-.8,1-1.2.3-.4.6-.9.9-1.3s.6-.9.8-1.4.4-.9.6-1.3.5-.5,1-.4l3.2,1c.2,0,.4.2.5.4s.1.4,0,.7c-.3.7-.6,1.4-1.1,2.1s-.9,1.5-1.5,2.3-1.2,1.6-1.9,2.5c-.2.2-.2.4-.2.5s.1.2.3.3c.4.3.9.6,1.4.8s1.1.4,1.8.6,1.3.2,2,.3c.5,0,.8.3.8.8v3.6c0,.3,0,.6-.2.8s-.4.3-.7.3c-1.3,0-2.5-.1-3.7-.4s-2.3-.6-3.3-1c-1-.5-2-1-2.8-1.5-.2-.1-.4-.2-.5-.2s-.3,0-.5.2c-1.3,1-2.8,1.8-4.4,2.3s-3.3.8-5.2.8c-3.2,0-5.6-.7-7.4-2.1s-2.6-3.4-2.6-6,.5-3.1,1.6-4.5,2.8-2.7,5.2-4.1c.3-.2.4-.3.4-.4s-.1-.3-.4-.6c-.8-.9-1.5-1.9-1.9-2.9s-.7-2-.7-2.9c0-1.4.4-2.7,1.2-3.9s1.9-2,3.4-2.7,3-1,4.8-1,3.4.3,4.8.8h-.2ZM463.8,265.2c-.2,0-.4,0-.6.2-.9.5-1.7,1.2-2.2,2-.6.8-.8,1.6-.8,2.5s.2,1.4.6,2,1,1.1,1.7,1.5,1.5.6,2.3.6,1.6-.2,2.5-.5,1.6-.7,2.1-1.2.3-.3.3-.5,0-.3-.2-.5l-5.1-5.7c-.2-.2-.4-.3-.5-.4h0ZM465.5,251.9c-.5.3-.9.7-1.2,1.2s-.4,1-.4,1.5.1.8.3,1.2.5.8.8,1.3l1.4,1.6c.1.1.2.2.4.1s.3,0,.4-.1c1.2-.6,2.1-1.2,2.6-1.9.6-.7.9-1.5.9-2.4s-.3-1.7-1-2.2-1.5-.8-2.4-.8-1.3.2-1.8.5h0Z"/>
    <path class="st1" d="M498.1,248.1h20.7c.4,0,.6.2.6.7v3.7c0,.6-.3.9-.9.9h-13.1c-.5,0-.8.2-.8.7v5.9c0,.5.2.7.6.7h8.7c.5,0,.7.2.7.7v3.9c0,.2,0,.3,0,.4,0,.1-.3.2-.5.2h-8.8c-.4,0-.6.2-.6.5v6.4c0,.4.1.5.5.5h14c.5,0,.7.2.7.6v3.9c0,.2,0,.4-.2.5s-.3.2-.6.2h-20.7c-.6,0-.9-.3-.9-.9v-28.8c0-.5.2-.8.7-.8h0Z"/>
    <path class="st1" d="M544.2,278.2c0,.2-.3.3-.8.3h-5.2c-.7,0-1.1-.2-1.4-.7l-4.2-5.9c-.2-.3-.4-.5-.5-.5s-.3.1-.5.5l-4.3,6c-.3.4-.7.7-1.3.7h-3.4c-.5,0-.8-.1-.9-.4s0-.7.5-1.3l6.7-8.6c.2-.2.2-.5.2-.6s0-.4-.3-.6l-6.6-9c-.2-.2-.2-.5,0-.8s.3-.4.7-.4h5c.4,0,.6,0,.8.1s.3.3.5.5l3.8,5.4c.2.4.5.4.7,0l3.6-5.4c.2-.2.3-.4.5-.5s.5-.1.8-.1h3.7c.4,0,.6.1.7.3,0,.2,0,.4-.2.7l-6.1,8.3c-.2.2-.3.5-.2.6,0,.2,0,.4.3.6l7.1,9.9c.3.5.5.9.5,1.1h0v-.2Z"/>
    <path class="st1" d="M553.5,257.6v1.2q0,.2.2.3c0,0,.2,0,.4-.2.4-.4.9-.8,1.5-1.2s1.2-.7,1.9-1,1.6-.4,2.6-.4c1.6,0,3,.4,4.3,1.2,1.3.8,2.3,2,3,3.6s1.1,3.7,1.1,6.2-.4,4.8-1.2,6.5-1.8,3-3.1,3.8-2.8,1.2-4.5,1.2-2-.2-3-.5-1.8-.9-2.5-1.6-.5-.4-.6-.4-.2.2-.2.6v7.5c0,.5-.2.7-.6.7h-5c-.4,0-.7-.2-.7-.7v-26.9c0-.3,0-.5.2-.7s.4-.2.7-.2h4.5c.6,0,.9.3.9.8h0v.2ZM555.2,274.3c.6.4,1.3.6,2.2.6s1.8-.2,2.5-.8,1.2-1.3,1.6-2.4.6-2.6.6-4.4-.2-3.2-.6-4.2-.9-1.7-1.6-2.2-1.5-.7-2.4-.7-1.5.2-2.1.5-1.1.7-1.5,1.2-.5,1-.5,1.6v9.3c.5.6,1.1,1.1,1.8,1.5h0Z"/>
    <path class="st1" d="M578.4,272.1c.5.8,1.1,1.4,1.9,1.8s1.7.6,2.7.6,1.9-.2,2.7-.6,1.7-1.1,2.5-2.1c0-.1.2-.2.3-.2s.2,0,.5.1l3,1.2c.4.2.4.4,0,.8-.9,1.3-1.8,2.2-2.8,3s-2,1.3-3.2,1.6c-1.2.3-2.5.5-3.9.5-2.1,0-4-.5-5.7-1.4s-3-2.2-4-3.9c-1-1.6-1.5-3.5-1.5-5.7s.5-4.4,1.5-6.1,2.3-3.1,4-4c1.7-1,3.5-1.4,5.5-1.4s4,.5,5.5,1.4c1.6.9,2.8,2.2,3.8,3.9.9,1.7,1.4,3.8,1.4,6.2s0,.5,0,.7-.3.3-.6.3h-13.9c-.2,0-.3,0-.4.2s0,.3,0,.5c0,1,.2,1.9.7,2.7h0ZM585.9,265.4c.3,0,.5,0,.6-.1s0-.2,0-.5c0-.7-.2-1.4-.5-2.1s-.8-1.3-1.4-1.8-1.4-.7-2.4-.7-1.7.2-2.4.7-1.3,1-1.6,1.8-.6,1.7-.6,2.6h8.2Z"/>
    <path class="st1" d="M596.4,278.3c0-.1-.2-.3-.2-.6v-20.1c0-.5.2-.8.7-.8h4.8c.4,0,.7.2.7.7v2.4c0,.2,0,.3.2.3s.2,0,.4-.2c.5-.7,1.2-1.4,1.9-1.9s1.4-1,2.2-1.3c.7-.3,1.4-.5,2.1-.5,1,0,1.5.2,1.5.7v4.8c0,.4-.2.6-.6.5-.5-.1-1-.2-1.5-.3s-1,0-1.3,0-1,.1-1.5.3c-.5.2-1,.5-1.5.8-.4.4-.8.7-1.1,1.1s-.4.9-.4,1.3v12c0,.6-.4.9-1.1.9h-4.4c-.3,0-.5,0-.7-.2h-.2Z"/>
    <path class="st1" d="M620,253.1c0,.7-.4,1-1.1,1h-4.4c-.4,0-.6,0-.7-.2s-.2-.4-.2-.7v-4.3c0-.6.2-.8.7-.8h5.1c.4,0,.7.3.7.8v4.3h0ZM620,277.5c0,.4,0,.6-.2.8-.2.1-.5.2-.9.2h-4.3c-.4,0-.6,0-.7-.2s-.2-.4-.2-.7v-20.1c0-.5.2-.8.7-.8h5c.4,0,.6.2.6.7v20h0Z"/>
    <path class="st1" d="M630.8,272.1c.5.8,1.1,1.4,1.9,1.8s1.7.6,2.7.6,1.9-.2,2.7-.6,1.7-1.1,2.5-2.1c0-.1.2-.2.3-.2s.2,0,.5.1l3,1.2c.4.2.4.4,0,.8-.9,1.3-1.8,2.2-2.8,3s-2,1.3-3.2,1.6c-1.2.3-2.5.5-3.9.5-2.1,0-4-.5-5.7-1.4s-3-2.2-4-3.9c-1-1.6-1.5-3.5-1.5-5.7s.5-4.4,1.5-6.1,2.3-3.1,4-4c1.7-1,3.5-1.4,5.5-1.4s4,.5,5.5,1.4c1.6.9,2.8,2.2,3.8,3.9.9,1.7,1.4,3.8,1.4,6.2s0,.5,0,.7-.3.3-.6.3h-13.9c-.2,0-.3,0-.4.2s0,.3,0,.5c0,1,.2,1.9.7,2.7h0ZM638.3,265.4c.3,0,.5,0,.6-.1s0-.2,0-.5c0-.7-.2-1.4-.5-2.1s-.8-1.3-1.4-1.8-1.4-.7-2.4-.7-1.7.2-2.4.7-1.3,1-1.6,1.8-.6,1.7-.6,2.6h8.2Z"/>
    <path class="st1" d="M648.5,277.7v-20.1c0-.5.2-.8.7-.8h5c.4,0,.6.2.6.7v2c0,.2,0,.3,0,.3s.2,0,.4-.2c.7-.7,1.4-1.2,2.1-1.7s1.5-.9,2.2-1.1c.8-.3,1.6-.4,2.5-.4,2,0,3.6.6,4.7,1.8,1.2,1.2,1.7,2.8,1.7,4.7v14.7c0,.7-.3,1-1,1h-4.5c-.3,0-.5,0-.6-.2s-.2-.3-.2-.6v-13.9c0-.9-.2-1.6-.8-2.1s-1.2-.8-2.2-.8-1.1.1-1.6.3-1,.5-1.4.8c-.5.4-1,.8-1.5,1.4v14.1c0,.6-.4.9-1.1.9h-4.4c-.6,0-.9-.3-.9-.8h.2Z"/>
    <path class="st1" d="M687.4,257.3c1.2.6,2.3,1.4,3,2.4s1.3,1.9,1.7,3c.2.5,0,.8-.5.9l-4.3.4c-.3,0-.5-.1-.6-.5-.2-.5-.5-1-.8-1.4s-.7-.8-1.1-1.1-1-.4-1.7-.4-1.8.3-2.5.8-1.3,1.3-1.7,2.4c-.4,1-.6,2.4-.6,4s.2,3,.6,4.1,1,1.9,1.7,2.4,1.7.8,2.7.8,2.2-.3,2.8-.9,1.4-1.5,2-2.5c0-.1.2-.2.2-.2h.5l3,.7c.3,0,.4.3.3.8-.2.6-.6,1.3-1,2-.5.7-1.1,1.4-1.8,2s-1.7,1.1-2.8,1.6c-1.1.4-2.3.6-3.8.6s-4-.5-5.6-1.4-2.9-2.2-3.9-3.9-1.4-3.6-1.4-5.8.5-4.2,1.4-5.9c1-1.7,2.2-3,3.9-4s3.5-1.4,5.6-1.4,3.3.3,4.5.9h0l.2-.4Z"/>
    <path class="st1" d="M701.7,272.1c.5.8,1.1,1.4,1.9,1.8s1.7.6,2.7.6,1.9-.2,2.7-.6,1.7-1.1,2.5-2.1c0-.1.2-.2.3-.2s.2,0,.5.1l3,1.2c.4.2.4.4,0,.8-.9,1.3-1.8,2.2-2.8,3s-2,1.3-3.2,1.6c-1.2.3-2.5.5-3.9.5-2.1,0-4-.5-5.7-1.4s-3-2.2-4-3.9c-1-1.6-1.5-3.5-1.5-5.7s.5-4.4,1.5-6.1,2.3-3.1,4-4c1.7-1,3.5-1.4,5.5-1.4s4,.5,5.5,1.4c1.6.9,2.8,2.2,3.8,3.9.9,1.7,1.4,3.8,1.4,6.2s0,.5,0,.7-.3.3-.6.3h-13.9c-.2,0-.3,0-.4.2s0,.3,0,.5c0,1,.2,1.9.7,2.7h0ZM709.2,265.4c.3,0,.5,0,.6-.1s0-.2,0-.5c0-.7-.2-1.4-.5-2.1s-.8-1.3-1.4-1.8-1.4-.7-2.4-.7-1.7.2-2.4.7-1.3,1-1.6,1.8-.6,1.7-.6,2.6h8.2Z"/>
    <path class="st1" d="M727,248.8c0-.2,0-.4.2-.5s.3-.2.6-.2h23.5c.3,0,.5,0,.6.2s.2.3.2.5v3.8c0,.4-.2.6-.7.6h-7.7c-.3,0-.5.1-.5.4v24.1c0,.5-.2.8-.7.8h-5.9c-.4,0-.6-.2-.6-.7v-24c0-.4-.2-.5-.5-.5h-7.9c-.5,0-.8-.2-.8-.6v-3.8h.2Z"/>
    <path class="st1" d="M757.4,272.1c.5.8,1.1,1.4,1.9,1.8s1.7.6,2.7.6,1.9-.2,2.7-.6,1.7-1.1,2.5-2.1c0-.1.2-.2.3-.2s.2,0,.5.1l3,1.2c.4.2.4.4,0,.8-.9,1.3-1.8,2.2-2.8,3s-2,1.3-3.2,1.6c-1.2.3-2.5.5-3.9.5-2.1,0-4-.5-5.7-1.4s-3-2.2-4-3.9c-1-1.6-1.5-3.5-1.5-5.7s.5-4.4,1.5-6.1,2.3-3.1,4-4c1.7-1,3.5-1.4,5.5-1.4s4,.5,5.5,1.4c1.6.9,2.8,2.2,3.8,3.9.9,1.7,1.4,3.8,1.4,6.2s0,.5,0,.7-.3.3-.6.3h-13.9c-.2,0-.3,0-.4.2s0,.3,0,.5c0,1,.2,1.9.7,2.7h0ZM764.9,265.4c.3,0,.5,0,.6-.1s0-.2,0-.5c0-.7-.2-1.4-.5-2.1s-.8-1.3-1.4-1.8-1.4-.7-2.4-.7-1.7.2-2.4.7-1.3,1-1.6,1.8-.6,1.7-.6,2.6h8.2Z"/>
    <path class="st1" d="M784,278.2c-1,.5-2.3.7-3.6.7-2.1,0-3.7-.6-4.9-1.7s-1.8-2.5-1.8-4.3.5-2.9,1.4-4c1-1.1,2.3-2,4.1-2.7,1.8-.6,3.9-1,6.3-1h1.4c.2-.1.3-.2.5-.2s.2-.2.2-.5v-.9c0-1-.3-1.9-.9-2.4-.6-.6-1.5-.9-2.6-.9s-1.6.2-2.4.5-1.4,1-1.9,1.9c0,.2-.2.3-.3.4s-.3,0-.6,0l-4.1-.9c-.2,0-.3-.1-.3-.3s0-.4,0-.8c.7-1.6,1.9-2.8,3.5-3.6s3.8-1.2,6.2-1.2,4.1.3,5.4.9c1.3.6,2.3,1.4,2.9,2.4s.9,2.2.9,3.6v14.4c0,.3,0,.6-.2.7,0,.1-.3.2-.6.2h-4.2c-.3,0-.5-.1-.6-.3s-.2-.5-.2-.8v-.9c0-.5-.4-.5-1,0-.8.8-1.8,1.4-2.8,1.8h0ZM787.1,268.1h-1.2c-.7.1-1.4.2-2.1.4s-1.3.4-1.9.7-1,.7-1.4,1.2-.5,1-.5,1.7.3,1.5.9,2,1.4.7,2.4.7,1.3-.1,1.8-.3,1-.5,1.4-.8c.4-.4.7-.7,1-1.1.2-.4.4-.7.4-1.1v-2.7c0-.5-.2-.7-.6-.7h-.2Z"/>
    <path class="st1" d="M798.3,277.7v-20.1c0-.5.2-.8.7-.8h4.9c.4,0,.6.2.6.7v2c0,.2,0,.3,0,.3s.2,0,.3-.2c.7-.7,1.4-1.2,2.1-1.7s1.5-.9,2.2-1.2,1.6-.4,2.5-.4c1.5,0,2.7.4,3.7,1,1,.7,1.7,1.6,2.1,2.8,0,.1,0,.2.2.1,0,0,.2,0,.3-.2.7-.7,1.4-1.4,2.2-1.9s1.6-1,2.5-1.3,1.7-.5,2.6-.5c1.9,0,3.4.6,4.6,1.8,1.1,1.2,1.7,2.8,1.7,4.8v14.5c0,.7-.3,1-1,1h-4.5c-.3,0-.5,0-.6-.2,0-.1-.2-.3-.2-.6v-13.9c0-.9-.2-1.6-.7-2.1s-1.2-.8-2.1-.8-1,.1-1.5.3-.9.5-1.3.8-.8.6-1.1,1c-.2.2-.3.4-.4.5s0,.4,0,.6v13.4c0,.7-.3,1-1,1h-4.5c-.3,0-.5,0-.6-.2s-.2-.3-.2-.6v-13.9c0-.9-.2-1.6-.7-2.1s-1.2-.8-2.1-.8-1.6.2-2.2.6c-.7.4-1.4,1.1-2.1,1.9v14.1c0,.6-.4.9-1.1.9h-4.4c-.6,0-.9-.3-.9-.8h0v.2Z"/>
  </g>
</svg>